/* XPM */
static char *ground[] = {
/* columns rows colors chars-per-pixel */
"32 32 51 1 ",
"  c #626262",
". c #646464",
"X c #656565",
"o c #666666",
"O c #676767",
"+ c #696969",
"@ c #6A6A6A",
"# c #6B6B6B",
"$ c #6D6D6D",
"% c #6E6E6E",
"& c #6F6F6F",
"* c #707070",
"= c #717171",
"- c #727272",
"; c #737373",
": c #747474",
"> c #757575",
", c #767676",
"< c #777777",
"1 c #787878",
"2 c #797979",
"3 c #7A7A7A",
"4 c #7B7B7B",
"5 c #7C7C7C",
"6 c #7D7D7D",
"7 c #7E7E7E",
"8 c #7F7F7F",
"9 c #808080",
"0 c #818181",
"q c #828282",
"w c #838383",
"e c #848484",
"r c #858585",
"t c #868686",
"y c #878787",
"u c #888888",
"i c #898989",
"p c #8A8A8A",
"a c #8B8B8B",
"s c #8C8C8C",
"d c #8D8D8D",
"f c #8E8E8E",
"g c #8F8F8F",
"h c #909090",
"j c #919191",
"k c #929292",
"l c #939393",
"z c #949494",
"x c #959595",
"c c #979797",
"v c #989898",
/* pixels */
"%0055005005-aggggaa4+<-%%%-<4<++",
"0ccjjggjggjrajjgggg5rcggaaaaaar5",
"0jjjagggggg<rjjgggg00jarrrarra0<",
"r0gjggagga%%gjgjggja5raggaarar-<",
"caaggaagg04jggjjgagja<rgagaaa44a",
"ccaggagag0rjgcjggggga<agaaaaaraa",
"05rjggaajr<504%<4554%orgagaag045",
"r0rjggagj0<0a000r0rr54agagaaa4<<",
"cargjggaga5gjgjgaagjjragggaagr0r",
"j00jgggggr4aaaggggagg5aggagagr0a",
"05gjjggggja5agggaaaa45gggggggg00",
"4jjjjjggjjj<rgaggag0rjgggaaaagg0",
"<jgjraaaggg<5jgjaaaaaggjgaraagg5",
"+55<o<-<4<< 0jggggg040055044554<",
"<rrraaraaar-rjggaaja0aara0000r54",
"4ggggggjggj4rjjgggagrgaagarrra0<",
"-rggggggggro0jgggagg4rararrra0<<",
"a40gggggg0+4jjgggggga5aaarraa--r",
"jr5gggggg54jggggagggcrraarrr04ra",
"j00ggggag05agggaggggjrrarrara5rr",
"-%4gagggg5+405444455<%rgararr444",
"gr5ggggga000rrrr00rr0-rrrraaa550",
"cjrgagaagr0argarrrrrr<0rraaaa50a",
"g0rggggaga5agararrrr4-aaagaag0<0",
"<0aaggaagar5arrrrrr5<raagagaag0<",
"5gggggaaggg50garara0rgagjaaarag<",
"40000550055%raaaarr0<504<55455-+",
"%<4<4<44<-<orararrr4o<<--<4-<-o+",
"0gggggagaga+0aarara5rjggagagaa0<",
"4raggaagagro5arrrra45gagggaara0-",
"45agjjggga-%aaraa0a04agggggaaa54",
"cracjjjgg0<ggggaaaaa04gggaaaa05a"
};
