/* XPM */
static char *W2[] = {
/* columns rows colors chars-per-pixel */
"64 64 256 2 ",
"   c black",
".  c #010101",
"X  c #020202",
"o  c gray1",
"O  c #040404",
"+  c gray2",
"@  c #060606",
"#  c #070707",
"$  c gray3",
"%  c #090909",
"&  c gray4",
"*  c #0B0B0B",
"=  c #0C0C0C",
"-  c gray5",
";  c #0E0E0E",
":  c gray6",
">  c #101010",
",  c #111111",
"<  c gray7",
"1  c #131313",
"2  c gray8",
"3  c #151515",
"4  c #161616",
"5  c gray9",
"6  c #181818",
"7  c #191919",
"8  c gray10",
"9  c #1B1B1B",
"0  c gray11",
"q  c #1D1D1D",
"w  c #1E1E1E",
"e  c gray12",
"r  c #202020",
"t  c gray13",
"y  c #222222",
"u  c #232323",
"i  c gray14",
"p  c #252525",
"a  c gray15",
"s  c #272727",
"d  c #282828",
"f  c gray16",
"g  c #2A2A2A",
"h  c gray17",
"j  c #2C2C2C",
"k  c #2D2D2D",
"l  c gray18",
"z  c #2F2F2F",
"x  c gray19",
"c  c #313131",
"v  c #323232",
"b  c gray20",
"n  c #343434",
"m  c #353535",
"M  c gray21",
"N  c #373737",
"B  c gray22",
"V  c #393939",
"C  c #3A3A3A",
"Z  c gray23",
"A  c #3C3C3C",
"S  c gray24",
"D  c #3E3E3E",
"F  c #3F3F3F",
"G  c gray25",
"H  c #414141",
"J  c gray26",
"K  c #434343",
"L  c #444444",
"P  c gray27",
"I  c #464646",
"U  c gray28",
"Y  c #484848",
"T  c #494949",
"R  c gray29",
"E  c #4B4B4B",
"W  c #4C4C4C",
"Q  c gray30",
"!  c #4E4E4E",
"~  c gray31",
"^  c #505050",
"/  c #515151",
"(  c gray32",
")  c #535353",
"_  c gray33",
"`  c #555555",
"'  c #565656",
"]  c gray34",
"[  c #585858",
"{  c gray35",
"}  c #5A5A5A",
"|  c #5B5B5B",
" . c gray36",
".. c #5D5D5D",
"X. c gray37",
"o. c #5F5F5F",
"O. c #606060",
"+. c gray38",
"@. c #626262",
"#. c gray39",
"$. c #646464",
"%. c #656565",
"&. c gray40",
"*. c #676767",
"=. c #686868",
"-. c DimGray",
";. c #6A6A6A",
":. c gray42",
">. c #6C6C6C",
",. c #6D6D6D",
"<. c gray43",
"1. c #6F6F6F",
"2. c gray44",
"3. c #717171",
"4. c #727272",
"5. c gray45",
"6. c #747474",
"7. c gray46",
"8. c #767676",
"9. c #777777",
"0. c gray47",
"q. c #797979",
"w. c gray48",
"e. c #7B7B7B",
"r. c #7C7C7C",
"t. c gray49",
"y. c #7E7E7E",
"u. c gray50",
"i. c #808080",
"p. c #818181",
"a. c gray51",
"s. c #838383",
"d. c #848484",
"f. c gray52",
"g. c #868686",
"h. c gray53",
"j. c #888888",
"k. c #898989",
"l. c gray54",
"z. c #8B8B8B",
"x. c gray55",
"c. c #8D8D8D",
"v. c #8E8E8E",
"b. c gray56",
"n. c #909090",
"m. c gray57",
"M. c #929292",
"N. c #939393",
"B. c gray58",
"V. c #959595",
"C. c gray59",
"Z. c #979797",
"A. c #989898",
"S. c gray60",
"D. c #9A9A9A",
"F. c #9B9B9B",
"G. c gray61",
"H. c #9D9D9D",
"J. c gray62",
"K. c #9F9F9F",
"L. c #A0A0A0",
"P. c gray63",
"I. c #A2A2A2",
"U. c gray64",
"Y. c #A4A4A4",
"T. c #A5A5A5",
"R. c gray65",
"E. c #A7A7A7",
"W. c gray66",
"Q. c #A9A9A9",
"!. c #AAAAAA",
"~. c gray67",
"^. c #ACACAC",
"/. c gray68",
"(. c #AEAEAE",
"). c #AFAFAF",
"_. c gray69",
"`. c #B1B1B1",
"'. c #B2B2B2",
"]. c gray70",
"[. c #B4B4B4",
"{. c gray71",
"}. c #B6B6B6",
"|. c #B7B7B7",
" X c gray72",
".X c #B9B9B9",
"XX c gray73",
"oX c #BBBBBB",
"OX c #BCBCBC",
"+X c gray74",
"@X c gray",
"#X c gray75",
"$X c #C0C0C0",
"%X c #C1C1C1",
"&X c gray76",
"*X c #C3C3C3",
"=X c gray77",
"-X c #C5C5C5",
";X c #C6C6C6",
":X c gray78",
">X c #C8C8C8",
",X c gray79",
"<X c #CACACA",
"1X c #CBCBCB",
"2X c gray80",
"3X c #CDCDCD",
"4X c #CECECE",
"5X c gray81",
"6X c #D0D0D0",
"7X c gray82",
"8X c #D2D2D2",
"9X c LightGray",
"0X c gray83",
"qX c #D5D5D5",
"wX c gray84",
"eX c #D7D7D7",
"rX c #D8D8D8",
"tX c gray85",
"yX c #DADADA",
"uX c gray86",
"iX c gainsboro",
"pX c #DDDDDD",
"aX c gray87",
"sX c #DFDFDF",
"dX c gray88",
"fX c #E1E1E1",
"gX c #E2E2E2",
"hX c gray89",
"jX c #E4E4E4",
"kX c gray90",
"lX c #E6E6E6",
"zX c #E7E7E7",
"xX c gray91",
"cX c #E9E9E9",
"vX c #EAEAEA",
"bX c gray92",
"nX c #ECECEC",
"mX c gray93",
"MX c #EEEEEE",
"NX c #EFEFEF",
"BX c gray94",
"VX c #F1F1F1",
"CX c gray95",
"ZX c #F3F3F3",
"AX c #F4F4F4",
"SX c gray96",
"DX c #F6F6F6",
"FX c gray97",
"GX c #F8F8F8",
"HX c #F9F9F9",
"JX c gray98",
"KX c #FBFBFB",
"LX c gray99",
"PX c #FDFDFD",
"IX c #FEFEFE",
"UX c white",
/* pixels */
"j j j j j j j j j j j j j j j j j j j j j j j j j j j j j j j j j j j j j j j j j j j j j j j j j j j j j j j j j j j j j j j j ",
"_ _ _ _ _ _ Y iXiXiXiXiXiXiXiXiXiXiXiXiXiXiXiXiXiXiXiXiXiXiXiXiXiXiXiXY Y Y Y Y Y Y Y Y Y Y Y Y Y Y Y Y Y Y _ _ _ _ _ _ _ _ _ _ ",
"_ _ _ _ _ _ Y iX6X6X6X$X6X6X6X6X6X6X$X6X6X6Xx.6X6X6Xx.$XW.x.[.x.W.x.x.B B 2.x.x.x.x.x.x.x.x.x.x.x.x.x.x.r.2.$.Y Y Y Y Y Y Y Y Y ",
"x.x.x.x.r _ Y iX6X$X[.6X[.6X$X[.6X$X$X[.6Xx.$X[.6Xx.$XW.x.W.W.x.W.x.W.B B x.iXiXiXiXiXiXiXiXiXiXiXiXiXiX$X[.W.x.x.x.x.x.x.x.x.x.",
"[.6Xx.x.r _ Y iX6XW.W.W.W.x.W.W.W.W.A.W.W.W.x.W.W.W.x.W.$Xx.x.x.x.W.W.B B x.iXiX$X$X$X$X$X$X$X$X$X$X$X6XiXiXiXiXiX6X6X6X6X6X6X6X",
"W.W.r.2.r _ Y nX$XA.W.W.W.W.W.W.A.W.x.x.x.x.$Xx.x.x.$XW.x.W.x.W.W.x.x.B B x.iX[.W.x.W.x.W.W.W.x.W.W.W.x.W.W.W.x.x.W.x.W.x.W.x.A.",
"W.x.r.2.r _ Y [.[.W.x.W.A.W.x.A.A.A.x.A.W.W.x.A.W.W.x.x.$Xx.x.x.W.x.W.B B x.iX[.x.W.x.A.x.x.r.A.x.r.x.A.x.x.r.W.x.x.A.A.W.A.x.W.",
"x.A.$._ r _ Y [.x.x.A.x.W.W.W.x.r.x.A.W.x.x.$XW.x.x.$Xx.x.W.x.W.W.W.x.B B x.iX[.W.x.A.r.W.r.W.x.W.A.A.x.W.A.r.x.W.x.W.W.x.r.W.A.",
"A.2.Y Y r _ Y 2._ _ _ _ _ _ _ _ _ _ _ _ _ _ _ _ _ _ _ _ _ _ _ _ _ _ B B B r.iXiXx.W.x.r.A.W.x.r.A.r.W.r.A.r.A.x.W.x.A.r.W.W.r.x.",
"2._ Y Y r _ Y B B B B B B B B B B B B B B B B B B B B B B B B B B B B Y Y Y $X6Xx.x.x.A.W.W.r.A.W.A.x.A.A.A.A.x.x.W.x.W.W.x.W.x.",
"_ Y B B r _ Y r r r r r r r r r r r r r r r r r r r r r r r r r r r r r _ Y $X[.x.W.x.W.x.x.x.W.x.x.r.W.x.x.x.2.2.$.$.$.$.$.$.$.",
"Y r r r j _ _ _ _ _ _ _ _ _ _ _ _ _ 2.2.x.x.W.W.iXiXiXiXiXiXiXiXiXiXiXiX_ Y [.x.2.2.$.$.$._ $.$.$._ $.$.$._ _ _ _ Y Y Y Y Y Y Y ",
"r j j j j _ _ _ _ 2.2.iXiXiXiXiXiXiXiXiXiXiXiXiX[.[.[.[.W.[.[.[.[.[.iXiX_ Y x.2.$.$._ Y Y Y _ Y Y Y _ Y Y Y B B B B B j j j j j ",
"j j j j Y _ _ _ _ 2.6X[.[.[.[.[.[.[.[.[.[.[.[.[.[.x.[.x.x.W.x.x.$XiXW.[.B B B B B B B B B B B B B B B B B B B j j r r r r r r r ",
"B B B B B _ _ _ _ 2.6XW.x.W.A.x.r.x.r.x.W.x.W.W.W.x.W.W.W.W.W.W.x.W.W.x.B j j j j j j j j j j j j j j j j j j B B B B B B B B B ",
"_ Y B B B _ _ _ _ 2.$Xx.W.A.x.W.A.W.x.W.x.W.W.x.W.W.W.x.x.W.x.W.W.W.x.x.B Y _ _ _ _ _ _ B Y _ _ _ _ Y Y Y Y Y Y Y Y Y Y Y Y Y Y ",
"A.A.A.A.A.A._ _ _ Y $X$XA.x.x.A.A.r.x.x.x.x.W.W.W.x.W.W.W.x.W.x.W.x.x.W.B Y _ _ _ _ _ _ _ 2.W.iXiX$X[.[.W.A.A.A.A.A.A.A.A.A.A.A.",
"6X6X6X6X6X6X_ _ _ Y x.$Xx.W.x.r.x.x.x.W.x.2.W.W.W.W.W.x.x.x.x.W.6XW.W.x.B Y nXnXnXnX_ _ B x.iXiXiXiXiXiXiXiXiXiXiXiXiXiXiXiXiXiX",
"W.A.x.W.x.W.B _ _ Y 2.A.W.x.W.W.x.W.2.x.2._ W.x.W.x.W.W.x.W.W.W.6XW.x.2.B Y nXA.A.x.nX_ B [.iXiXW.A.W.A.A.x.x.x.[.[.[.[.[.[.[.[.",
"W.x.W.x.W.x.B _ _ _ Y A.A.2.2.2.2._ _ 2._ 2.2.2.2.2.2.2.2.2.2.2.2.2.2._ B Y nXA.r.x.2._ $.W.iXiXx.A.x.A.r.r.r.r.W.A.W.x.A.x.A.A.",
"W.A.x.W.x.W.B _ _ _ Y Y _ _ _ _ Y Y Y B j r Y Y Y Y Y Y Y Y Y Y Y B B B Y Y [.x.A.r.2.B $.W.iXW.W.A.W.r.W.x.x.x.A.x.x.A.r.r.x.x.",
"W.x.W.x.W.$.B _ _ _ Y B B j j r r r r r r r j j j j j j j j j j j B B Y Y _ _ A.2.2._ B Y x.iXW.A.W.x.W.x.A.A.A.W.r.W.x.A.x.A.A.",
"x.W.r.r.x.$.B _ _ _ _ _ _ B B B B B B B B B B B B B B Y Y Y Y Y Y Y Y Y _ _ _ B B B B B Y Y x.x.A.x.r.A.W.x.x.x.A.x.x.A.r.r.x.x.",
"x.x.r.r.x.B r _ _ _ _ _ _ _ _ _ _ _ _ _ _ _ _ _ _ _ Y Y Y Y Y Y Y Y Y Y Y Y _ _ _ _ _ _ _ Y Y $.r.x.x.r.W.A.A.A.r.r.W.x.r.r.x.A.",
"x.x.W.W.$.B r _ _ _ _ _ _ _ _ _ _ _ _ _ iXiXiXiXiXiXiXiXiXiXiXiXiXiXiXiXiXiXiXiXA.r._ _ _ _ Y Y $.$.$.A.W.x.x.x.r.r.x.x.W.x.W.x.",
"A.W.x.$.B r B _ _ A.iXiXiXiX$XW.2.Y Y _ $X$X$X$X$X$X$X$X$X$X$X$X$X$X$X$X$X$X$X$X$X$X$X$XA.r._ _ _ Y Y 2.x.x.x.x.W.x.$.$.2.r.x.x.",
"$.$.$.B r B _ _ A.iXiX$XW.W.W.x.2.2.Y _ iX$XW.A.x.x.x.A.W.x.W.A.x.W.A.x.x.A.x.x.W.x.W.iXiXiXiXiXiX_ _ _ Y Y Y Y Y Y Y Y Y _ _ _ ",
"_ B B r B _ A.A.iX$XW.W.A.W.r.x.x.W.B Y iX$Xx.x.W.x.W.x.W.x.x.x.x.x.x.W.x.W.W.x.W.x.r.W.W.x.iXiXiXiXiX_ r r r r r r r r r B B Y ",
"r r B _ $.A.iXiX$XW.x.r.x.A.A.x.W.W.r B 2.$Xr.x.x.x.x.W.x.W.r.x.W.r.x.x.W.x.x.W.x.A.W.x.x.r.x.W.A.x.x.W.Y r B B B B j j j r r r ",
"Y $.$.2.A.iXiX$X$XW.x.A.W.W.x.A.r.r.Y r Y $Xr.x.x.x.W.A.x.x.r.x.x.r.x.W.x.x.W.x.W.x.x.r.x.r.x.x.x.W.x._ 2.r _ nXnXnX$X$XA.B B B ",
"$.x.[.iXiXiX$XW.A.A.W.x.x.A.x.A.A.x._ r Y $Xx.W.x.x.x.x.W.x.x.W.W.x.W.x.r.W.A.x.x.x.r.x.r.x.W.r.x.x.W._ Y r _ nX$X$XnXnXnXA.B _ ",
"$.[.6X6X$X[.A.x.A.r.W.x.r.r.x.W.r.x._ r Y r.$Xx.W.W.r.x.x.W.r.x.r.r.x.W.2.x.x.W.x.W.x.W.r.r.x.r.x.W.x._ B r _ nXW.W.W.W.W.A.B _ ",
"$.iX[.W.W.x.x.W.A.x.W.x.W.r.x.W.A.x.Y r Y Y x.x.x.x.r.x.W.x.W.A.W.r.x.x.W.r.x.x.W.x.r.x.r.r.W.x.W.x.r._ B j _ nXx.x.W.x.x.r.B _ ",
"$.$.[.A.x.x.x.x.x.W.A.x.A.W.x.W.x.$.Y r Y Y Y $XW.W.x.W.x.r.x.W.x.r.x.W.x.r.x.W.x.A.x.W.x.W.r.r.x.W.2._ B j _ nXW.W.x.W.x.$.B Y ",
"$.Y $.A.W.x.W.W.A.A.r.W.r.r.r.$.$.Y r B Y Y r _ r.r.r.x.W.2.W.x.W.x.W.x.W.x.W.x.r.W.x.x.r.x.r.r.W.x.2.Y j j _ nXx.x.W.x.W.$.B Y ",
"$.$.Y $.$.$.$.$.$.$.$.$.$.$.$.Y Y r B Y _ _ B B B B B B Y _ 2.W.r.r.x.W.r.r.x.W.2.x.W.x.x.A.x.W.x.W.$.Y r j _ nXW.x.x.W.W._ B Y ",
"$.Y Y B B j j j j j j j j r r r r B Y _ _ _ Y Y r r r r r r B B B B B B B B B B B B Y Y $.2.A.x.A.x.$.B r j _ nXx.W.x.x.W._ B B ",
"$._ _ _ _ Y Y Y Y Y Y Y Y Y Y Y Y _ _ _ _ _ _ Y Y Y B B B r r r r r r r r r r r r r r r r B B B B B B B B r _ _ _ _ _ _ _ _ B B ",
"$.iXiXiXiXiXiXiXiXiXiXiXiXiXiXiXiX$X$Xx._ _ _ _ _ _ Y Y Y B B B B B r r r r r r r r r r r r r r r r r r r r r r r r r r r r r B ",
"$.iX6X6X[.[.[.[.[.[.[.x.x.x.W.x.W.x.x.W.$._ r r j Y Y _ _ _ _ _ _ _ _ B j j B j j B Y _ _ Y Y Y Y Y Y Y Y Y B B B B B B B B B B ",
"$.iX[.W.W.x.W.x.x.r.x.W.x.r.x.W.x.x.W.x.$._ r r j Y Y Y B B B B B Y Y Y _ _ _ Y Y Y Y _ _ r.r.r.r.r.r.r.r.r.r.r.r.r.r.r.r.r.B _ ",
"$.iX[.x.x.W.x.x.W.x.W.x.x.W.x.x.x.r.x.W.2._ j r j B $.r.r.r.r.r.r.r.r.r.r.r.r.r.x.x.A.A.W.[.[.$X$X$X$X$X$X[.$X$X$X$X$X$X$Xr.B _ ",
"$.6X[.W.W.A.W.W.x.W.x.x.r.x.W.W.W.x.x.x.$._ j r r B r.$X$X$X$X$X$X$X$X$X$X$X$X$X$X$X6XiXiXnXnXnXnXnXnXnXnXnXnXnXiXiX6X6XA.$.j Y ",
"$.6X[.A.W.x.W.W.x.W.x.W.x.x.x.x.r.A.x.W.$._ B r r r r.$X6XnXnXnXnXnXnXiXnXnXiXnXnXnXnXnXnXiXiX6X$X[.$X$X$XW.$X$X[.$X$X[.r._ j Y ",
"$.$X[.W.x.W.x.x.W.x.W.r.A.x.W.x.x.W.x.x.$._ B r r r r.$X6X[.$X$X$X$X$XW.$X$XW.$X$X$X[.[.W.A.A.x.x.W.x.W.x.x.x.W.x.W.x.W.2._ j B ",
"Y $Xx.x.W.x.W.W.W.W.W.x.W.x.x.x.W.x.W.x.2._ B r r r $.$XiX[.x.x.x.x.x.x.W.x.W.W.A.x.A.W.W.W.A.r.A.x.W.W.A.x.W.x.W.W.W.x.2._ j B ",
"Y [.W.W.W.x.x.x.x.x.x.W.x.W.x.x.x.W.x.x.2._ B r r r Y $XiX$Xx.A.x.W.x.W.x.A.W.x.x.A.W.W.x.A.x.A.x.x.r.x.A.A.x.W.x.W.x.W.2._ j B ",
"Y r.r.r._ _ W.W.x.W.x.x.W.x.x.W.x.x.x.2.$._ B r r r j [.iX6XW.W.x.x.x.x.r.x.x.W.x.A.x.W.A.r.x.x.W.x.x.W.x.r.r.x.r.A.x.A.2._ r B ",
"Y B r r r _ _ _ _ _ $.$.$.$.$.$.$.$.$.$._ _ B r r r j W.iX6Xx.x.W.x.W.x.x.W.x.r.r.A.A.x.W.x.W.A.x.W.x.x.r.x.x.x.W.x.r.r.2._ r B ",
"_ _ _ Y B r r j r B B B B B B B B B B B B B B r r r j x.6X[.[.x.x.W.x.W.r.x.x.A.r.A.x.A.r.W.x.x.r.x.x.x.x.W.x.r.x.A.r.r.2._ r B ",
"Y Y Y Y Y Y Y j j j r r r r r r r r r r r r r r r r j x.A.2.2.2.2.2.2.2.W.x.W.W.x.x.r.x.x.x.r.x.x.W.x.W.x.x.W.x.x.x.x.A.2._ r B ",
"Y r.W.W.W.W.A.x.$.Y Y _ B B j j j j j j j j j j j j B _ Y B B j j j j j _ 2.2.r.x.r.r.r.r.r.r.r.r.r.r.r.r.r.r.r.r.r.r.r.$._ r B ",
"Y W.$XiXiXiXiXiX$XW.W.x.2.$._ Y B B B B B B B B B B Y _ Y Y B B B B B B j Y _ _ _ _ _ _ _ _ _ _ _ _ _ _ _ _ _ _ _ _ _ _ _ r j B ",
"Y W.iXW.W.x.$X6XiXiXiX$XW.W.W.W.W.W.W.W.x.x.x.r.r.2.$.$._ _ Y Y Y Y Y B B j j j j j j j j j j j j j r r r r r r r r r r r j B Y ",
"Y W.iXW.W.W.[.[.x.W.$XiXiXiXiXiXiXiXiXiXiXiXiX6X6X$X$XW.W.W.W.W.x.Y _ Y B B B B B B B B B j j j j j j j j j j j j j j j B B Y Y ",
"Y W.iXW.x.W.r.r.W.A.x.r.W.x.W.x.W.x.W.W.x.W.x.W.W.[.$XiXiXiX6X$Xr.B Y _ Y iXiXiXiXiXiXiXiXiXiXiXiXiXiXiXiXiXiXiXiXiXiXiXiXiXY _ ",
"Y W.6XW.W.W.A.W.x.A.x.A.W.x.x.W.r.r.x.W.r.x.x.x.W.x.W.x.W.W.W.r.$.r B _ Y W.iXiXW.W.W.W.x.W.x.W.A.W.x.W.W.x.W.x.W.A.W.x.iXiX_ _ ",
"Y W.$XW.x.W.r.r.A.W.x.W.W.A.x.r.W.r.x.r.A.x.W.x.W.x.W.x.W.W.W.$._ r B Y Y iXW.W.iXx.W.x.W.W.W.x.W.x.W.W.x.W.W.W.x.W.x.W.r.r.Y _ ",
"Y W.x.$.$.$.$.$.$.$.$.$.$.$.$.$.$.$.$.$.$.$.$.$.$.$.$.$.$.$.$._ _ B r B Y iX[.[.[.A.A.x.W.A.A.W.A.W.W.A.W.W.A.A.W.A.W.W.iXA.r _ ",
"Y x.$.B B B B B B B B B B B B B B B B B B B B B B B B B B B B B B B r j Y [.W.[.[.A.A.W.W.x.A.W.x.x.W.x.W.W.W.x.W.x.W.x.W._ r _ ",
"Y B r r r r r r r r r r r r r r r r r r r r r r r r r r r r r r r r r j Y B Y B _ $.$.$.r.r.A.W.W.A.A.W.W.A.A.W.A.W.W.x.x._ r _ ",
"_ Y B B B j j j j j j j j j j j j j j j j j j j j j j j j j j j j j j j B _ _ B B r r r r r B _ _ _ _ _ _ _ _ _ _ _ _ _ _ _ r _ ",
"_ _ _ _ Y Y Y Y Y Y Y Y B B B B B B B B B B B B B B B B B B B B B B B B B _ _ _ _ B B B B B B r r r r r r r r r r r r r r r r _ ",
"B B B B B B B B B B B B B B B B B B B B B B B B B B B B B B B B B B B B B B B B B B B B B B B B B B B B B B B B B B B B B B B B "
};
